<?xml version="1.0" standalone="no"?>
<!DOCTYPE svg PUBLIC "-//W3C//DTD SVG 20010904//EN"
 "http://www.w3.org/TR/2001/REC-SVG-20010904/DTD/svg10.dtd">
<svg version="1.0" xmlns="http://www.w3.org/2000/svg"
 width="700.000000pt" height="700.000000pt" viewBox="0 0 700.000000 700.000000"
 preserveAspectRatio="xMidYMid meet">
<metadata>
Created by potrace 1.14, written by Peter Selinger 2001-2017
</metadata>
<g transform="translate(0.000000,700.000000) scale(0.100000,-0.100000)"
fill="#000000" stroke="none">
<path d="M5579 6996 c-2 -2 -26 -6 -54 -10 -242 -29 -514 -159 -695 -330 -27
-26 -50 -43 -50 -37 0 5 -10 13 -22 16 -13 4 -36 13 -53 20 -107 47 -396 129
-555 159 -127 23 -134 25 -280 42 -190 23 -681 23 -751 0 -8 -3 -42 -7 -76
-11 -35 -3 -68 -7 -75 -10 -7 -2 -31 -6 -53 -9 -33 -4 -84 -14 -205 -41 -263
-57 -625 -200 -885 -348 -155 -88 -386 -246 -471 -322 -7 -5 -38 -32 -70 -60
-124 -105 -245 -228 -396 -403 -119 -137 -307 -423 -405 -617 -123 -242 -256
-618 -289 -815 -2 -14 -7 -36 -10 -50 -14 -59 -42 -252 -52 -360 -15 -155 -6
-629 13 -700 2 -8 6 -37 9 -65 7 -60 20 -132 42 -235 3 -14 7 -36 10 -50 18
-97 85 -311 150 -482 l18 -47 -50 -58 c-153 -177 -251 -373 -300 -603 -25
-118 -26 -381 -1 -500 36 -167 99 -322 190 -461 53 -82 74 -107 168 -200 198
-198 428 -314 724 -365 87 -15 307 -11 407 7 238 43 468 153 633 303 l60 54
50 -20 c159 -65 471 -155 595 -173 24 -4 47 -8 50 -10 11 -7 173 -28 315 -42
153 -15 578 -7 684 12 9 1 43 6 76 10 215 25 517 104 770 202 141 55 484 225
493 246 2 4 8 7 13 7 10 0 226 142 266 174 10 8 63 50 118 94 142 114 327 295
465 458 113 132 253 337 346 504 61 109 154 293 154 305 0 3 11 28 24 57 25
56 132 368 139 409 3 13 12 51 20 84 9 33 18 74 20 90 3 17 7 37 10 45 3 8 8
31 11 50 9 73 27 196 32 220 9 52 18 231 18 370 0 212 -13 383 -39 535 -3 17
-10 59 -16 95 -16 89 -65 288 -94 383 -36 113 -96 272 -105 275 -4 2 10 21 31
43 174 181 301 449 338 709 9 67 8 343 -2 370 -4 8 -8 29 -10 45 -13 86 -72
256 -125 353 -116 219 -299 407 -507 524 -197 111 -376 158 -616 163 -81 2
-148 2 -150 1z m-912 -523 c-49 -64 -137 -222 -163 -293 -108 -296 -114 -591
-18 -878 23 -70 85 -206 117 -257 240 -383 647 -615 1087 -618 282 -2 545 77
756 229 41 30 77 54 80 54 3 0 -125 -129 -284 -287 -160 -159 -885 -880 -1612
-1603 -1885 -1876 -2360 -2346 -2360 -2339 0 4 7 12 16 20 28 23 101 132 147
219 66 125 114 270 132 395 3 22 8 50 11 63 5 25 5 220 0 267 -34 297 -156
560 -353 762 -128 131 -231 205 -386 278 -260 123 -568 153 -855 83 -153 -37
-344 -125 -452 -208 -19 -15 -42 -30 -50 -35 -8 -5 191 196 442 446 774 769
2978 2962 3391 3374 216 215 393 390 395 389 2 -1 -17 -28 -41 -61z m1903
-1727 c0 -2 -8 -10 -17 -17 -16 -13 -17 -12 -4 4 13 16 21 21 21 13z m-6110
-2439 c0 -2 -10 -12 -22 -23 l-23 -19 19 23 c18 21 26 27 26 19z"/>
</g>
</svg>
