<svg width="65" height="87" viewBox="0 0 65 87" fill="none" xmlns="http://www.w3.org/2000/svg">
  <g id="Debian 1" clip-path="url(#clip0_226_5610)">
    <g id="Layer_1">
      <g id="Group">
        <path id="Vector"
          d="M36.4094 29.0127C35.5231 29.0246 36.576 29.4683 37.7334 29.6468C38.0543 29.3965 38.3426 29.145 38.6012 28.8994C37.8817 29.0756 37.1485 29.0797 36.4094 29.0127Z"
          fill="white" />
        <path id="Vector_2"
          d="M41.1643 27.8274C41.6941 27.0984 42.0784 26.3011 42.2143 25.4766C42.0951 26.0638 41.7777 26.571 41.4763 27.1073C39.8195 28.1507 41.3197 26.488 41.4752 25.855C39.6944 28.0991 41.2296 27.2004 41.1643 27.8274Z"
          fill="white" />
        <path id="Vector_3"
          d="M42.9224 23.2575C43.0303 21.6612 42.6086 22.1666 42.4668 22.7747C42.6317 22.8613 42.7628 23.9006 42.9224 23.2575Z"
          fill="white" />
        <path id="Vector_4"
          d="M33.0469 1.44043C33.5203 1.52466 34.0696 1.58992 33.9907 1.70322C34.5103 1.58873 34.6272 1.48551 33.0469 1.44043Z"
          fill="white" />
        <path id="Vector_5" d="M33.991 1.70215L33.6582 1.77155L33.9684 1.74308L33.991 1.70215Z" fill="white" />
        <path id="Vector_6"
          d="M48.7441 23.8626C48.7975 25.2958 48.3259 25.9922 47.8994 27.2237L47.1323 27.6051C46.5053 28.8235 47.1946 28.3786 46.7456 29.3473C45.7656 30.2176 43.776 32.0695 43.1389 32.2392C42.6732 32.2291 43.4539 31.6899 43.5559 31.4793C42.2455 32.3786 42.5042 32.8294 40.4998 33.3769L40.4416 33.2458C35.5002 35.5712 28.6357 30.9638 28.7259 24.6782C28.6737 25.0769 28.5758 24.9772 28.4666 25.1374C28.2116 21.9038 29.9603 18.656 32.9097 17.3279C35.7945 15.9006 39.1763 16.4855 41.2413 18.4128C40.107 16.9263 37.8475 15.3501 35.1716 15.4961C32.5491 15.5388 30.095 17.2051 29.2764 19.0149C27.9334 19.8602 27.7768 22.2752 27.1919 22.7177C26.4035 28.5074 28.6731 31.0077 32.5129 33.9506C33.1156 34.3575 32.6825 34.4198 32.7632 34.7294C31.4878 34.1327 30.3204 33.231 29.3594 32.1271C29.8696 32.8727 30.4195 33.5976 31.1307 34.1671C29.9271 33.7607 28.3201 31.2527 27.8521 31.1507C29.9253 34.8629 36.2625 37.6611 39.5827 36.2724C38.0463 36.3293 36.0952 36.3038 34.3702 35.6661C33.6435 35.293 32.6594 34.5212 32.8356 34.3771C37.3653 36.0683 42.0433 35.6572 45.962 32.5162C46.9597 31.7391 48.0488 30.4181 48.3638 30.4003C47.8899 31.1133 48.4451 30.7431 48.0809 31.3725C49.0727 29.7703 47.6484 30.72 49.1071 28.6058L49.6457 29.3473C49.4441 28.0162 51.2978 26.4015 51.1092 24.298C51.5345 23.655 51.5831 24.9908 51.1323 26.4703C51.7581 24.8289 51.2978 24.5649 51.458 23.2101C51.6306 23.6656 51.8602 24.1491 51.977 24.6302C51.5689 23.0434 52.3941 21.959 52.5993 21.0366C52.3964 20.9476 51.9699 21.7377 51.8714 19.8644C51.8863 19.0505 52.0986 19.4379 52.1799 19.2374C52.0209 19.1454 51.6015 18.5214 51.347 17.3249C51.5303 17.0431 51.8406 18.0539 52.0921 18.0949C51.9302 17.144 51.652 16.4185 51.6401 15.6883C50.9045 14.1519 51.3797 15.8935 50.7841 15.0286C50.0011 12.5882 51.4331 14.4621 51.5303 13.354C52.7156 15.0713 53.3912 17.7348 53.7027 18.8376C53.4654 17.4928 53.0828 16.1895 52.6147 14.929C52.976 15.0814 52.034 12.1629 53.0839 14.0955C51.9634 9.97571 48.2921 6.12583 44.9138 4.32012C45.326 4.69799 45.8475 5.17256 45.6612 5.2473C43.9801 4.24775 44.2755 4.16886 44.0346 3.7465C42.6673 3.18948 42.576 3.79217 41.6713 3.74768C39.0909 2.37857 38.5938 2.52391 36.2192 1.66732L36.3272 2.17273C34.6182 1.60326 34.3358 2.38747 32.4892 2.17392C32.377 2.08672 33.0812 1.85596 33.6613 1.77232C32.0087 1.99062 32.0858 1.44606 30.4687 1.83223C30.8667 1.55284 31.2891 1.36716 31.7138 1.12988C30.3667 1.21174 28.4963 1.9141 29.0735 1.27462C26.8757 2.25578 22.9718 3.6326 20.7811 5.68686L20.7123 5.22654C19.7086 6.43133 16.3351 8.8249 16.0663 10.3868L15.7976 10.4491C15.2762 11.3336 14.9375 12.3355 14.5234 13.2449C13.8407 14.4093 13.5221 13.6933 13.6194 13.876C12.2758 16.6 11.6072 18.8886 11.0312 20.7667C11.4417 21.3806 11.0413 24.4635 11.1962 26.9306C10.5223 39.1174 19.7489 50.9488 29.8346 53.6799C31.3128 54.2096 33.5106 54.1906 35.3804 54.2428C33.1749 53.6117 32.8902 53.9089 30.7404 53.1596C29.1904 52.4288 28.851 51.5954 27.7524 50.6421L28.1873 51.4103C26.0339 50.648 26.935 50.4671 25.1827 49.9125L25.6472 49.3068C24.949 49.2534 23.7981 48.1311 23.4837 47.5076L22.7197 47.5379C21.8026 46.4072 21.3132 45.5904 21.3494 44.9574L21.1026 45.3976C20.8232 44.9177 17.7267 41.1515 19.3331 42.0282C19.0347 41.7565 18.6379 41.5851 18.2078 40.8027L18.5347 40.4295C17.7629 39.4347 17.1122 38.1599 17.162 37.7352C17.5743 38.2916 17.8602 38.396 18.1437 38.4915C16.1915 33.6486 16.0818 38.2252 14.6041 33.562L14.9161 33.5371C14.6771 33.1747 14.5305 32.7837 14.3384 32.3988L14.4748 31.0433C13.0701 29.4203 14.0821 24.1354 14.2856 21.2377C14.425 20.0596 15.4583 18.8049 16.2431 16.8373L15.765 16.7554C16.6797 15.1609 20.9864 10.3494 22.9819 10.5962C23.9482 9.38251 22.7897 10.5915 22.6005 10.2866C24.7235 8.08992 25.3909 8.73473 26.8235 8.33907C28.3676 7.42257 25.4977 8.69736 26.2297 7.98967C28.9009 7.30808 28.122 6.43904 31.6059 6.0932C31.9737 6.30201 30.7534 6.41591 30.4473 6.687C32.6719 5.59788 37.4881 5.84643 40.6178 7.29088C44.2464 8.98803 48.3259 14.0024 48.4872 18.7201L48.6705 18.7693C48.578 20.645 48.9576 22.8144 48.2986 24.8064L48.7441 23.8626Z"
          fill="white" />
        <path id="Vector_7"
          d="M26.7336 30.2285L26.6084 30.8496C27.1915 31.6415 27.6542 32.4993 28.3975 33.1162C27.8624 32.0728 27.4656 31.6415 26.7336 30.2285Z"
          fill="white" />
        <path id="Vector_8"
          d="M28.1103 30.1759C27.8018 29.8342 27.6203 29.4237 27.415 29.0156C27.6108 29.734 28.0118 30.3515 28.3837 30.9803L28.1103 30.1759Z"
          fill="white" />
        <path id="Vector_9"
          d="M52.4818 24.8779L52.3519 25.2054C52.1135 26.9008 51.5968 28.5783 50.8066 30.1343C51.6798 28.4929 52.2428 26.6973 52.4818 24.8779Z"
          fill="white" />
        <path id="Vector_10"
          d="M33.2228 1.01457C33.8213 0.795677 34.6951 0.894148 35.3322 0.75C34.5029 0.819405 33.6777 0.860929 32.8633 0.964739L33.2228 1.01457Z"
          fill="white" />
        <path id="Vector_11"
          d="M12.1815 12.2031C12.3197 13.4809 11.2205 13.9774 12.4247 13.1339C13.0713 11.6781 12.1732 12.7323 12.1815 12.2031Z"
          fill="white" />
        <path id="Vector_12"
          d="M10.7649 18.1206C11.0431 17.2682 11.093 16.7568 11.1992 16.2627C10.4321 17.2439 10.8456 17.4533 10.7649 18.1206Z"
          fill="white" />
        <path id="Vector_13"
          d="M8.21305 75.2008C8.18635 75.2287 8.18635 79.6534 8.13118 80.8083C8.07661 81.742 7.99356 83.7488 6.01464 83.7488C3.98055 83.7488 3.48582 81.4122 3.32091 80.3961C3.12871 79.269 3.12871 78.3335 3.12871 77.9224C3.12871 76.6025 3.21116 72.9181 6.31717 72.9181C7.25206 72.9181 7.77408 73.194 8.18635 73.4129L8.21305 75.2008ZM0.242188 78.445C0.242188 86.1958 4.36554 86.1958 4.97001 86.1958C6.67428 86.1958 7.77408 85.2609 8.24093 83.6397L8.29609 86.0854C8.8187 86.0576 9.34072 86.003 10.1926 86.003C10.4951 86.003 10.7419 86.003 10.9625 86.0309C11.1826 86.0309 11.4021 86.0576 11.6495 86.0854C11.2099 85.2063 10.8801 83.2274 10.8801 78.938C10.8801 74.76 10.8801 67.6962 11.2372 65.5518C10.2483 66.0198 9.3953 66.3223 7.52612 66.4866C8.26821 67.2839 8.26821 67.6962 8.26821 71.3236C7.74679 71.1593 7.08655 70.9665 5.95947 70.9665C1.03945 70.9671 0.242188 75.2554 0.242188 78.445Z"
          fill="white" />
        <path id="Vector_14"
          d="M15.1496 77.0407C15.1775 74.7593 15.6449 72.7252 17.596 72.7252C19.7404 72.7252 19.9041 75.0885 19.8495 77.0407H15.1496ZM22.5706 77.3166C22.5706 74.1002 21.9388 70.9385 17.8706 70.9385C12.2637 70.9385 12.2637 77.1523 12.2637 78.4704C12.2637 84.05 14.7646 86.249 18.9704 86.249C20.8384 86.249 21.7466 85.9756 22.2413 85.8367C22.214 84.8473 22.3511 84.2149 22.5172 83.3631C21.9388 83.7214 21.1967 84.1882 19.5476 84.1882C15.2593 84.1882 15.2042 80.2838 15.2042 78.9372H22.5172L22.5706 77.3166Z"
          fill="white" />
        <path id="Vector_15"
          d="M31.5134 78.4989C31.5134 81.055 31.0466 84.4914 27.8581 84.4914C27.418 84.4914 26.8687 84.4078 26.5116 84.3259C26.4564 83.3364 26.4564 81.6322 26.4564 79.6532C26.4564 77.2887 26.7032 76.0537 26.8965 75.4474C27.4731 73.4964 28.7651 73.4697 29.0119 73.4697C31.1012 73.4697 31.5134 76.3556 31.5134 78.4989ZM23.625 81.4951C23.625 83.5298 23.625 84.6836 23.2952 85.5627C24.4223 86.0029 25.8234 86.2497 27.501 86.2497C28.5729 86.2497 31.6789 86.2497 33.3553 82.8144C34.1526 81.2199 34.4272 79.0755 34.4272 77.4537C34.4272 76.4642 34.3169 74.2931 33.5202 72.918C32.7514 71.6272 31.514 70.967 30.1953 70.967C27.5562 70.967 26.7868 73.166 26.3751 74.2931C26.3751 72.8913 26.4018 67.9986 26.6213 65.4971C24.8352 66.3222 23.7348 66.4587 22.5537 66.569C23.6256 67.008 23.6256 68.8237 23.6256 74.7338L23.625 81.4951Z"
          fill="white" />
        <path id="Vector_16"
          d="M39.7107 86.085C39.1602 86.0026 38.7746 85.9474 37.9773 85.9474C37.0994 85.9474 36.4932 86.0032 35.862 86.085C36.1366 85.5624 36.2464 85.3145 36.3288 83.5289C36.4392 81.082 36.4665 74.5395 36.2743 73.1651C36.1366 72.1198 35.8899 71.9555 35.5049 71.6809C37.7585 71.4608 38.3908 71.2965 39.4348 70.8018C39.216 72.0101 39.1869 72.6164 39.1869 74.4571C39.1329 83.9418 39.105 84.9579 39.7107 86.085Z"
          fill="white" />
        <path id="Vector_17"
          d="M48.5129 78.3049C48.4583 80.0371 48.4304 81.2466 47.9624 82.2082C47.3852 83.4456 46.4236 83.8027 45.7088 83.8027C44.0579 83.8027 43.702 82.4289 43.702 81.0823C43.702 78.4989 46.0114 78.3049 47.0548 78.3049H48.5129ZM40.9531 81.6868C40.9531 83.4189 41.4757 85.1499 43.0157 85.8926C43.7026 86.1951 44.3895 86.1951 44.6102 86.1951C47.1396 86.1951 47.9909 84.3253 48.5135 83.171C48.4856 84.3805 48.5135 85.122 48.5959 86.0848C49.0907 86.0569 49.5854 86.0023 50.4105 86.0023C50.8774 86.0023 51.3176 86.0569 51.7844 86.0848C51.4819 85.6179 51.3176 85.3421 51.2339 84.2702C51.1793 83.2261 51.1793 82.1815 51.1793 80.7246L51.2072 75.117C51.2072 73.0272 50.6567 70.9658 46.5334 70.9658C43.813 70.9658 42.219 71.791 41.4218 72.2032C41.7522 72.8083 42.0268 73.3291 42.2736 74.5126C43.3467 73.5777 44.7484 73.083 46.1769 73.083C48.4595 73.083 48.4595 74.595 48.4595 76.7383C47.9369 76.7116 47.4967 76.657 46.754 76.657C43.2619 76.6576 40.9531 78.0024 40.9531 81.6868Z"
          fill="white" />
        <path id="Vector_18"
          d="M64.3452 83.3643C64.3731 84.2992 64.3731 85.2887 64.7575 86.0859C64.1518 86.0314 63.7947 85.9483 62.6688 85.9483C62.0086 85.9483 61.6515 86.0041 61.1289 86.0859C61.238 85.7288 61.2944 85.5912 61.349 85.1232C61.4314 84.492 61.4866 82.3749 61.4866 81.6322V78.6638C61.4866 77.3718 61.4866 75.502 61.4029 74.843C61.3484 74.3761 61.2119 73.112 59.6162 73.112C58.0496 73.112 57.5276 74.2658 57.3348 75.2007C57.1159 76.1623 57.1159 77.2075 57.1159 81.2751C57.1426 84.7939 57.1426 85.1226 57.4172 86.0853C56.9504 86.0308 56.3732 85.9762 55.5486 85.9762C54.8884 85.9762 54.4488 86.0029 53.9001 86.0853C54.0923 85.6452 54.2027 85.4251 54.2572 83.8863C54.313 82.3743 54.4227 74.9521 54.1736 73.1939C54.0371 72.1208 53.7613 71.874 53.46 71.5993C55.6868 71.489 56.4005 71.1313 57.0886 70.7754V73.688C57.4178 72.835 58.1047 70.9385 60.8542 70.9385C64.2906 70.9385 64.3173 73.4401 64.3452 75.0886V83.3643Z"
          fill="white" />
        <path id="Vector_19" d="M39.9429 66.9113L37.6661 69.1868L35.3906 66.9113L37.6661 64.6357L39.9429 66.9113Z"
          fill="white" />
      </g>
    </g>
  </g>
  <defs>
    <clipPath id="clip0_226_5610">
      <rect width="64.5155" height="85.5" fill="white" transform="translate(0.242188 0.75)" />
    </clipPath>
  </defs>
</svg>