<svg width="103" height="89" viewBox="0 0 103 89" fill="none" xmlns="http://www.w3.org/2000/svg">
  <g id="ubuntu 1" clip-path="url(#clip0_226_5658)">
    <path id="Vector"
      d="M95.2862 83.8146C97.7125 84.0126 99.6931 83.4927 99.6931 83.4927V68.242H102.961V85.7952C100.419 86.3646 92.9754 88.7909 89.6662 83.9136C88.3182 81.5783 88.3293 78.9373 88.3293 78.9373V68.242H91.7459C91.7459 68.242 91.7397 77.4077 91.7336 78.9871C91.7336 81.8259 93.036 83.8146 95.2862 83.8146ZM85.4491 83.345C85.4491 83.345 84.7725 84.0093 82.0821 84.2363C79.3092 84.2363 78.6655 81.8801 78.682 80.8359V71.4942H85.4491V68.7875H78.682V63.1095L75.3811 63.7698V80.4069C75.3811 80.4069 75.4966 83.9887 76.9325 85.4246C78.3684 86.8606 80.7618 87.9994 86.1754 86.1178C85.7028 84.1099 85.4491 83.345 85.4491 83.345ZM64.4121 70.4051C61.9858 70.207 60.0052 70.7269 60.0052 70.7269V85.9776H56.7372V68.4245C59.2789 67.855 66.7229 65.4288 70.0321 70.306C71.3801 72.6414 71.369 75.2823 71.369 75.2823V85.9776H67.9524C67.9524 85.9776 67.9586 76.8119 67.9647 75.2326C67.9645 72.3938 66.6621 70.4051 64.4121 70.4051ZM44.6367 83.8146C47.0629 84.0126 49.0435 83.4927 49.0435 83.4927V68.242H52.3116V85.7952C49.7698 86.3646 42.3259 88.7909 39.0167 83.9136C37.6687 81.5783 37.6798 78.9373 37.6798 78.9373V68.242H41.0963C41.0963 68.242 41.0902 77.4077 41.0841 78.9871C41.0843 81.8259 42.3867 83.8146 44.6367 83.8146ZM21.7601 83.7274V72.5618C21.7601 72.5618 22.478 71.1506 25.6718 71.1506C28.8655 71.1506 29.3111 72.0914 29.6825 72.5122C30.0539 72.9331 30.8709 73.7501 30.8709 76.8201C30.9451 80.3356 30.2024 84.1978 25.4242 84.1978C22.5369 84.1978 22.0045 84.0772 21.7601 83.7274ZM18.455 86.0144C18.455 86.0144 20.6337 87.1038 25.0901 87.1038C29.5464 87.1038 34.3494 84.628 34.3494 77.3493C34.3494 70.0705 28.7837 68.0404 26.318 68.0404C23.8524 68.0404 21.7603 69.4764 21.7603 69.4764V59.9199L18.455 60.4151V86.0144ZM7.0067 83.8146C9.43294 84.0126 11.4136 83.4927 11.4136 83.4927V68.242H14.6816V85.7952C12.1398 86.3646 4.69592 88.7909 1.38672 83.9136C0.0387163 81.5783 0.0498076 78.9373 0.0498076 78.9373V68.242H3.46636C3.46636 68.242 3.46022 77.4077 3.45408 78.9871C3.45428 81.8259 4.75673 83.8146 7.0067 83.8146Z"
      fill="white" />
    <g id="Group">
      <path id="Exclude" fill-rule="evenodd" clip-rule="evenodd"
        d="M56.0508 54.6773C41.01 54.6773 28.8174 42.4847 28.8174 27.4443C28.8174 12.4038 41.01 0.210739 56.051 0.210938C71.0911 0.210938 83.2841 12.4038 83.2841 27.4443C83.2841 42.4849 71.0911 54.6777 56.0508 54.6773ZM64.7408 39.7546C66.6832 38.6334 69.1645 39.2979 70.2857 41.24C71.4068 43.1826 70.7427 45.6641 68.7999 46.7849C66.8577 47.9062 64.3762 47.2421 63.2554 45.2993C62.1338 43.3569 62.7986 40.8756 64.7408 39.7546ZM63.434 8.51106C65.3764 7.39004 67.8575 8.05453 68.9787 9.99632C70.0996 11.9391 69.4357 14.4206 67.4931 15.5412C65.5507 16.6627 63.0694 15.9986 61.9482 14.0558C60.827 12.114 61.4914 9.63228 63.434 8.51106ZM36.1525 24.3027C38.0951 23.1814 40.5764 23.8459 41.6976 25.7879C42.8185 27.7307 42.1544 30.2122 40.2118 31.3328C38.2698 32.4542 35.7883 31.7901 34.6673 29.8474C33.5454 27.9052 34.2103 25.4235 36.1525 24.3027ZM41.3939 23.276C42.1143 23.7363 42.7131 24.3634 43.1396 25.1043C44.5854 27.6088 43.7761 30.7922 41.3428 32.3115C41.6979 33.5282 42.1975 34.6979 42.831 35.7956C44.1683 38.1119 45.6342 39.7345 47.7524 41.0629L50.4815 36.3357C49.1644 35.4728 48.3892 34.5294 47.548 33.0723C44.6765 28.099 46.3809 21.7394 51.354 18.8679L48.6306 14.1509C45.0027 16.246 42.5202 19.5598 41.3939 23.276ZM68.1624 17.0846L68.1093 17.0547L68.0788 17.0375C67.9964 17.0911 67.9128 17.1434 67.8269 17.1931C65.2679 18.6707 61.9987 17.7945 60.5216 15.2355C59.9857 14.3072 59.7561 13.362 59.8076 12.3662C56.7311 11.7193 53.4548 11.9847 50.4092 13.2703L53.1646 18.043C57.78 16.4466 63.0257 18.2876 65.5583 22.6743C66.4386 24.1945 66.9174 25.9138 66.9497 27.6702H72.3876C72.3893 27.663 72.3916 27.6561 72.3942 27.6493C72.3952 27.6466 72.3963 27.6439 72.3973 27.6413C72.3621 25.0239 71.6772 22.3792 70.2753 19.9507C69.6807 18.9192 68.9719 17.9578 68.1624 17.0846ZM52.1749 37.3641L49.4676 42.0534C53.1316 43.9355 57.3051 44.2659 61.3596 42.971C61.4196 41.187 62.3713 39.4736 64.0316 38.515C65.483 37.6772 67.1632 37.5962 68.615 38.1504C70.6788 35.7283 71.9418 32.7542 72.2953 29.6506H66.7974C66.2872 32.5817 64.5308 35.2743 61.7524 36.8782C58.6474 38.6711 55.1904 38.7853 52.1943 37.3306L52.1749 37.3641Z"
        fill="white" />
    </g>
  </g>
  <defs>
    <clipPath id="clip0_226_5658">
      <rect width="102.922" height="88.8838" fill="white" transform="translate(0.0390625 0.0585938)" />
    </clipPath>
  </defs>
</svg>